<svg xmlns="http://www.w3.org/2000/svg" width="653.53" height="384.83" viewBox="0 0 653.53 384.83">
  <g id="Group_107" data-name="Group 107" transform="translate(0 -0.044)">
    <g id="Group_84" data-name="Group 84" transform="translate(199.746 30.556)">
      <g id="Group_78" data-name="Group 78" transform="translate(83.278 11.057)">
        <g id="Group_48" data-name="Group 48" transform="translate(109.542 94.402)">
          <path id="Path_81" data-name="Path 81" d="M251.219,135.7H182.85a7.058,7.058,0,0,1-7.15-7.15h0a7.058,7.058,0,0,1,7.15-7.15h68.369a7.058,7.058,0,0,1,7.15,7.15h0A7.2,7.2,0,0,1,251.219,135.7Z" transform="translate(-175.7 13.775)" fill="#c56e81"/>
          <path id="Path_82" data-name="Path 82" d="M279.574,210.374H198.916a8.247,8.247,0,0,1-7.82-10.725l38.43-132.717a8.316,8.316,0,0,1,7.82-6.033H318a8.247,8.247,0,0,1,7.82,10.725l-38.43,132.717A7.924,7.924,0,0,1,279.574,210.374Z" transform="translate(-157.134 -60.9)" fill="#c56e81"/>
          <path id="Path_83" data-name="Path 83" d="M268.872,210.374H198.716a8.247,8.247,0,0,1-7.82-10.725l38.43-132.717a8.316,8.316,0,0,1,7.82-6.033H307.3a8.247,8.247,0,0,1,7.82,10.725l-38.43,132.717A8.115,8.115,0,0,1,268.872,210.374Z" transform="translate(-157.381 -60.9)" fill="#fff"/>
          <path id="Path_84" data-name="Path 84" d="M281.6,135.7H196.25a7.058,7.058,0,0,1-7.15-7.15h0a7.058,7.058,0,0,1,7.15-7.15H281.6a7.058,7.058,0,0,1,7.15,7.15h0A7.056,7.056,0,0,1,281.6,135.7Z" transform="translate(-159.16 13.775)" fill="#c56e81"/>
        </g>
        <g id="Group_77" data-name="Group 77">
          <g id="Group_60" data-name="Group 60" transform="translate(0 81.89)">
            <g id="Group_49" data-name="Group 49" transform="translate(56.365 6.033)">
              <path id="Path_85" data-name="Path 85" d="M203.34,58s-18.992,26.141-32.621,57.2a11.4,11.4,0,0,0,.894,10.725h0c4.692,7.15,16.981,5.586,21.673-1.117,0,0,35.972-50.048,34.632-52.059C227.694,72.3,203.34,58,203.34,58Z" transform="translate(-129.832 -58)" fill="#eac8ce"/>
              <path id="Path_86" data-name="Path 86" d="M203.065,90.215,155.922,71,151.9,95.8l47.59,18.1a8.877,8.877,0,0,0,5.362.447,12.179,12.179,0,0,0,9.384-14.076h0A12.335,12.335,0,0,0,203.065,90.215Z" transform="translate(-151.9 -41.954)" fill="#eac8ce"/>
            </g>
            <g id="Group_50" data-name="Group 50" transform="translate(128.704)">
              <path id="Path_87" data-name="Path 87" d="M222.312,55.3l-32.621,4.245a6.034,6.034,0,0,0-5.362,6.7l21.226,91.606,70.157-.223-9.831-91.159a6.254,6.254,0,0,0-5.586-6.926Z" transform="translate(-184.277 -55.3)" fill="#eac8ce"/>
              <path id="Path_88" data-name="Path 88" d="M191.609,90.26c0-1.117-5.809-23.46-5.809-23.46" transform="translate(-182.396 -41.106)" fill="none" stroke="#d5b2ba" stroke-miterlimit="10" stroke-width="0.844"/>
            </g>
            <g id="Group_59" data-name="Group 59" transform="translate(0 6.7)">
              <g id="Group_52" data-name="Group 52" transform="translate(0 16.089)">
                <path id="Path_89" data-name="Path 89" d="M227.028,99.879H170.5V93.4h56.528a3.054,3.054,0,0,1,3.128,3.128h0A3.114,3.114,0,0,1,227.028,99.879Z" transform="translate(-72.577 -31.063)" fill="#061418"/>
                <g id="Group_51" data-name="Group 51">
                  <path id="Path_90" data-name="Path 90" d="M231.969,134.316H150.641a9.527,9.527,0,0,1-9.161-7.15L126.957,74.661a7.186,7.186,0,0,1,6.926-9.161h75.072a6.235,6.235,0,0,1,6.033,4.692Z" transform="translate(-126.673 -65.5)" fill="#1c2e34"/>
                  <path id="Path_91" data-name="Path 91" d="M159.9,86.15A7.15,7.15,0,1,1,152.75,79C156.548,79.223,159.9,82.351,159.9,86.15Z" transform="translate(-103.311 -48.837)" fill="#fff"/>
                </g>
              </g>
              <g id="Group_58" data-name="Group 58" transform="translate(131.373)">
                <path id="Path_92" data-name="Path 92" d="M208.2,73.718s17.874,35.3,37.983,63.677c2.234,3.128,7.6,4.692,11.395,4.692h0c8.714-.447,12.512-9.831,9.161-17.651,0,0-28.152-65.241-32.174-66.135C234.118,58.078,208.2,73.718,208.2,73.718Z" transform="translate(-157.417 -58.299)" fill="#eac8ce"/>
                <g id="Group_57" data-name="Group 57" transform="translate(0 29.048)">
                  <g id="Group_54" data-name="Group 54" transform="translate(0 38.653)">
                    <g id="Group_53" data-name="Group 53" transform="translate(30.451 2.235)">
                      <path id="Path_93" data-name="Path 93" d="M199.1,90.717,214.517,89.6l-.67,15.417H200.664Z" transform="translate(-199.1 -89.6)" fill="#c35f54"/>
                    </g>
                    <path id="Path_94" data-name="Path 94" d="M217.039,91.952s-35.078-13.629-31.28,14.076H219.5Z" transform="translate(-185.471 -88.6)" fill="#c35f54"/>
                  </g>
                  <g id="Group_56" data-name="Group 56" transform="translate(41.399)">
                    <path id="Path_95" data-name="Path 95" d="M258.964,85.147,204,86.934l1.117,24.577,57.2-1.117a12.67,12.67,0,0,0,10.054-17.2h0A12.767,12.767,0,0,0,258.964,85.147Z" transform="translate(-204 -54.314)" fill="#eac8ce"/>
                    <g id="Group_55" data-name="Group 55">
                      <path id="Path_96" data-name="Path 96" d="M224.109,71.3l14.523,31.5L204,103.921v8.267" transform="translate(-204 -71.3)" fill="none" stroke="#d5b2ba" stroke-miterlimit="10" stroke-width="0.844"/>
                      <line id="Line_10" data-name="Line 10" x2="7.597" y2="3.798" transform="translate(34.632 31.503)" fill="none" stroke="#d5b2ba" stroke-miterlimit="10" stroke-width="0.844"/>
                    </g>
                  </g>
                </g>
              </g>
            </g>
          </g>
          <g id="Group_63" data-name="Group 63" transform="translate(129.634)">
            <path id="Path_97" data-name="Path 97" d="M198.909,42.159a7.141,7.141,0,0,1-5.809,8.267,7.038,7.038,0,0,1-8.043-6.033,7.019,7.019,0,1,1,13.853-2.234Z" transform="translate(-184.37 2.864)" fill="#0b181b"/>
            <path id="Path_98" data-name="Path 98" d="M195.6,53.571l1.564,19.215c.447,6.7,4.915,10.054,11.395,9.384h0c5.586-.447,11.171-3.8,10.5-9.607L215.038,42.4Z" transform="translate(-171.23 10.667)" fill="#c35f54"/>
            <path id="Path_99" data-name="Path 99" d="M211.015,83.073h0c-10.948.894-20.779-7.15-21.9-16.31l-2.234-19.215c-1.341-11.618,6.256-22.119,17.427-23.907h0c11.395-1.787,24.13,6.033,25.918,17.874l1.564,14.97C233.358,69.89,224.2,81.062,211.015,83.073Z" transform="translate(-182.176 -12.801)" fill="#c35f54"/>
            <g id="Group_61" data-name="Group 61" transform="translate(6.885 34.97)">
              <path id="Path_100" data-name="Path 100" d="M192.7,39.5v4.469l2.681-.223" transform="translate(-181.694 -27.882)" fill="none" stroke="#312220" stroke-linecap="round" stroke-linejoin="round" stroke-miterlimit="10" stroke-width="0.578"/>
              <path id="Path_101" data-name="Path 101" d="M200.069,34.3s-4.469,0-4.469,1.787c0,0,0,1.341,4.022,1.117,4.022,0,4.915-.447,5.139-1.787C205.207,34.523,202.3,34.3,200.069,34.3Z" transform="translate(-178.115 -34.3)" fill="#0b181b"/>
              <path id="Path_102" data-name="Path 102" d="M191.407,34.868s3.575-.67,4.022,1.117c0,0,.223,1.117-2.9,1.787-3.128.447-4.245.223-4.692-.67C187.385,35.762,189.619,35.091,191.407,34.868Z" transform="translate(-187.774 -33.751)" fill="#0b181b"/>
              <path id="Path_103" data-name="Path 103" d="M195.9,38.649a4.869,4.869,0,0,1,5.809,0" transform="translate(-177.744 -30.158)" fill="none" stroke="#312220" stroke-linecap="round" stroke-linejoin="round" stroke-miterlimit="10" stroke-width="0.578"/>
              <path id="Path_104" data-name="Path 104" d="M193.715,39.082s-2.011-2.234-4.915.447" transform="translate(-186.508 -29.475)" fill="none" stroke="#312220" stroke-linecap="round" stroke-linejoin="round" stroke-miterlimit="10" stroke-width="0.578"/>
            </g>
            <path id="Path_105" data-name="Path 105" d="M217.593,28.581s-5.139,6.7,5.139,14.746c0,0-1.787,16.534-4.022,20.779,0,0-20.779-4.245-30.61,2.458,0,0,.447,14.523,17.427,15.193,22.79.894,25.024-22.119,25.024-22.119l-4.692-11.171,7.82,1.117S249.32,25.9,224.966,25.9Z" transform="translate(-180.487 -9.698)" fill="#0b181b"/>
            <g id="Group_62" data-name="Group 62" transform="translate(44.152 35.591)">
              <path id="Path_106" data-name="Path 106" d="M218.409,40.659a7.141,7.141,0,0,1-5.809,8.267,7.038,7.038,0,0,1-8.043-6.033,7.141,7.141,0,0,1,5.809-8.267A7.245,7.245,0,0,1,218.409,40.659Z" transform="translate(-204.454 -34.578)" fill="#c35f54"/>
              <path id="Path_107" data-name="Path 107" d="M206.718,41.539s-.67-5.139,4.022-5.139" transform="translate(-201.7 -32.33)" fill="none" stroke="#312220" stroke-linecap="round" stroke-linejoin="round" stroke-miterlimit="10" stroke-width="0.519"/>
            </g>
            <path id="Path_108" data-name="Path 108" d="M222.915,38.649s-18.991,1.117-30.386.223c0,0-11.395-4.245-6.7-11.171,3.8-5.362,12.735-.894,12.735-.894s-.223-5.586,3.8-7.15c4.692-1.787,18.545-3.351,30.386,15.417Z" transform="translate(-184.693 -18.649)" fill="#0b181b"/>
            <path id="Path_109" data-name="Path 109" d="M199.645,57.6l-6.033.67s-2.681,10.054,11.395,11.171c14.746,1.117,20.332-4.469,23.237-11.618L212.157,54.7Z" transform="translate(-173.935 25.849)" fill="#c35f54"/>
          </g>
          <g id="Group_76" data-name="Group 76" transform="translate(63.045 183.773)">
            <g id="Group_68" data-name="Group 68" transform="translate(0 0.67)">
              <g id="Group_64" data-name="Group 64" transform="translate(34.945 111.391)">
                <rect id="Rectangle_93" data-name="Rectangle 93" width="20.779" height="27.929" transform="translate(20.897 27.929) rotate(179.758)" fill="#c35f54"/>
              </g>
              <g id="Group_66" data-name="Group 66" transform="translate(23.704)">
                <g id="Group_65" data-name="Group 65">
                  <path id="Path_110" data-name="Path 110" d="M244.6,101.2l1.564,8.937a31.382,31.382,0,0,1-30.833,36.419h-9.161V225.2l-38.43.447-2.234-96.3a27.374,27.374,0,0,1,27.258-27.929Z" transform="translate(-165.499 -101.2)" fill="#0086ff"/>
                </g>
              </g>
              <g id="Group_67" data-name="Group 67" transform="translate(0 132.717)">
                <path id="Path_111" data-name="Path 111" d="M210.981,163.281c-4.915,1.341-16.087,4.692-21.226-2.681L154.9,179.591l61.666-.447-2.681-13.853A2.244,2.244,0,0,0,210.981,163.281Z" transform="translate(-154.877 -160.6)" fill="#0b181b"/>
                <rect id="Rectangle_94" data-name="Rectangle 94" width="61.666" height="5.362" transform="translate(61.702 23.854) rotate(179.624)" fill="#fff"/>
                <path id="Path_112" data-name="Path 112" d="M173.673,167.961c-.223,0-.223-.223-.447-.223a21.063,21.063,0,0,0-4.469-4.692.842.842,0,0,1-.223-1.341c.223-.447.894-.447,1.341-.223a30.077,30.077,0,0,1,5.139,5.139c.223.447.223,1.117-.223,1.341Z" transform="translate(-138.348 -159.694)" fill="#fff"/>
                <path id="Path_113" data-name="Path 113" d="M171.573,169.114c-.223,0-.223-.223-.447-.223a21.062,21.062,0,0,0-4.469-4.692.961.961,0,1,1,1.117-1.564,30.078,30.078,0,0,1,5.139,5.139c.223.447.223,1.117-.223,1.341Z" transform="translate(-140.94 -158.389)" fill="#fff"/>
                <path id="Path_114" data-name="Path 114" d="M169.373,170.214c-.223,0-.223-.223-.447-.223a21.063,21.063,0,0,0-4.469-4.692.961.961,0,1,1,1.117-1.564,30.077,30.077,0,0,1,5.139,5.139c.223.447.223,1.117-.223,1.341C170.044,170.214,169.82,170.437,169.373,170.214Z" transform="translate(-143.656 -157.032)" fill="#fff"/>
              </g>
            </g>
            <g id="Group_75" data-name="Group 75" transform="translate(54.031)">
              <g id="Group_74" data-name="Group 74">
                <g id="Group_71" data-name="Group 71" transform="translate(0 112.061)">
                  <g id="Group_69" data-name="Group 69" transform="translate(35.114)">
                    <rect id="Rectangle_95" data-name="Rectangle 95" width="20.779" height="27.929" transform="translate(20.897 27.929) rotate(179.758)" fill="#c35f54"/>
                  </g>
                  <g id="Group_70" data-name="Group 70" transform="translate(0 20.88)">
                    <path id="Path_115" data-name="Path 115" d="M234.957,162.411c-4.915,1.341-15.863,5.586-21-2.011L179.1,179.391l61.666-.447-2.9-14.746A2.235,2.235,0,0,0,234.957,162.411Z" transform="translate(-179.038 -160.4)" fill="#0b181b"/>
                    <rect id="Rectangle_96" data-name="Rectangle 96" width="61.666" height="5.362" transform="translate(61.702 23.801) rotate(179.624)" fill="#fff"/>
                    <path id="Path_116" data-name="Path 116" d="M197.773,167.761c-.223,0-.223-.223-.447-.223a21.062,21.062,0,0,0-4.469-4.692.842.842,0,0,1-.223-1.341c.223-.447.894-.447,1.341-.223a30.077,30.077,0,0,1,5.139,5.139c.223.447.223,1.117-.223,1.341C198.444,167.761,198.22,167.984,197.773,167.761Z" transform="translate(-162.633 -159.494)" fill="#fff"/>
                    <path id="Path_117" data-name="Path 117" d="M195.673,168.914c-.223,0-.223-.223-.447-.223A21.063,21.063,0,0,0,190.758,164a.961.961,0,1,1,1.117-1.564,30.079,30.079,0,0,1,5.139,5.139c.223.447.223,1.117-.223,1.341A1,1,0,0,1,195.673,168.914Z" transform="translate(-165.225 -158.189)" fill="#fff"/>
                    <path id="Path_118" data-name="Path 118" d="M193.573,170.014c-.223,0-.223-.223-.447-.223a21.062,21.062,0,0,0-4.469-4.692.961.961,0,0,1,1.117-1.564,30.077,30.077,0,0,1,5.139,5.139c.223.447.223,1.117-.223,1.341A1,1,0,0,1,193.573,170.014Z" transform="translate(-167.817 -156.832)" fill="#fff"/>
                  </g>
                </g>
                <g id="Group_73" data-name="Group 73" transform="translate(23.522)">
                  <g id="Group_72" data-name="Group 72">
                    <path id="Path_119" data-name="Path 119" d="M268.9,101.2l1.564,8.937a31.382,31.382,0,0,1-30.833,36.419h-9.161V225.2l-38.43.447-2.234-96.3a27.374,27.374,0,0,1,27.258-27.929Z" transform="translate(-189.355 -100.53)" fill="#0086ff"/>
                    <path id="Path_120" data-name="Path 120" d="M189.6,146.48V128.158A27.177,27.177,0,0,1,216.635,100.9h6.926" transform="translate(-189.6 -100.9)" fill="none" stroke="#55382c" stroke-miterlimit="10" stroke-width="0.844"/>
                  </g>
                </g>
              </g>
            </g>
          </g>
        </g>
      </g>
      <g id="Group_80" data-name="Group 80" transform="translate(0 184.552)">
        <path id="Path_121" data-name="Path 121" d="M205.026,262.55,149.839,99,105.6,260.539" transform="translate(-69.404 -92.967)" fill="none" stroke="#55382e" stroke-miterlimit="10" stroke-width="1.147"/>
        <path id="Path_122" data-name="Path 122" d="M308.4,262.55,253.439,99,209.2,260.539" transform="translate(58.468 -92.967)" fill="none" stroke="#55382e" stroke-miterlimit="10" stroke-width="1.147"/>
        <g id="Group_79" data-name="Group 79">
          <rect id="Rectangle_97" data-name="Rectangle 97" width="391.001" height="11.171" fill="#fff"/>
        </g>
      </g>
      <g id="Group_83" data-name="Group 83" transform="translate(56.081)">
        <g id="Group_82" data-name="Group 82">
          <path id="Path_123" data-name="Path 123" d="M119.192,53.917h92.5a4.582,4.582,0,0,0,4.692-4.692V18.392a4.582,4.582,0,0,0-4.692-4.692h-92.5a4.582,4.582,0,0,0-4.692,4.692V49.225A4.719,4.719,0,0,0,119.192,53.917Z" transform="translate(-114.5 -13.7)" fill="#fff"/>
          <g id="Group_81" data-name="Group 81" transform="translate(16.31 15.417)">
            <line id="Line_11" data-name="Line 11" x1="67.699" stroke-width="0.98" stroke="#f1d5ce" stroke-linecap="round" stroke-linejoin="round" stroke-miterlimit="10" fill="none"/>
            <line id="Line_12" data-name="Line 12" x1="23.013" transform="translate(0.223 10.725)" fill="none" stroke="#f1d5ce" stroke-linecap="round" stroke-linejoin="round" stroke-miterlimit="10" stroke-width="0.98"/>
          </g>
        </g>
        <path id="Path_124" data-name="Path 124" d="M166.537,29.3V47.4L143.3,29.3Z" transform="translate(-78.952 5.555)" fill="#fff"/>
      </g>
    </g>
    <g id="Group_106" data-name="Group 106" transform="translate(66.135 0.044)">
      <g id="Group_92" data-name="Group 92" transform="translate(7.373 67.344)">
        <g id="Group_87" data-name="Group 87" transform="translate(87.361 18.801)">
          <g id="Group_85" data-name="Group 85" transform="translate(0 10.054)">
            <path id="Path_125" data-name="Path 125" d="M94.79,43.1l14.3,56.081,27.705,48.037-9.607,8.043L87.863,106.107,72,60.527Z" transform="translate(-72 -43.1)" fill="#f9b0a3"/>
            <path id="Path_126" data-name="Path 126" d="M106.307,89.7l24.577,7.373c2.234.67,4.469,1.564,5.362,4.022a4.108,4.108,0,0,1-.447,3.575h0a5.245,5.245,0,0,1-5.586,2.9l-20.555-2.681,3.128,5.362a2.684,2.684,0,0,1,0,3.128h0a2.789,2.789,0,0,1-3.575.67l-7.373-5.139a8.8,8.8,0,0,1-3.8-5.586L96.7,97.967l2.9-8.043h6.7Z" transform="translate(-41.513 14.418)" fill="#f9b0a3"/>
          </g>
          <g id="Group_86" data-name="Group 86" transform="translate(4.692)">
            <path id="Path_127" data-name="Path 127" d="M94.655,38.6l9.607,34.408L74.1,86.861l9.384-28.152Z" transform="translate(-74.1 -38.6)" fill="#ff9184"/>
          </g>
        </g>
        <g id="Group_88" data-name="Group 88">
          <path id="Path_128" data-name="Path 128" d="M108.866,32.006S79.82,21.281,63.063,51.891,32.9,148.859,32.9,148.859l74.849,6.256,29.269-85.573c3.8-7.82,12.959-18.1,6.256-23.907-2.9-2.681-6.926-4.915-12.735-6.7Z" transform="translate(-32.9 -30.185)" fill="#ff9184"/>
          <line id="Line_13" data-name="Line 13" y1="24.801" x2="8.49" transform="translate(95.181 40.697)" fill="none" stroke="#ff6c63" stroke-miterlimit="10" stroke-width="1.02"/>
        </g>
        <g id="Group_91" data-name="Group 91" transform="translate(26.365 9.641)">
          <g id="Group_89" data-name="Group 89" transform="translate(8.267 4.692)">
            <path id="Path_129" data-name="Path 129" d="M102.47,101.171,72.083,36.6,48.4,71.455l33.291,45.58A15.3,15.3,0,0,0,94.65,123.29l63.454-2.9,8.267-10.948Z" transform="translate(-48.4 -36.6)" fill="#ffc1b2"/>
            <path id="Path_130" data-name="Path 130" d="M107.956,69.2l27.482,1.564,11.171,3.8a2.268,2.268,0,0,1,1.564,2.9h0a2.614,2.614,0,0,1-2.9,1.787l-10.948-2.9-7.82-.67,3.351,3.128A12.181,12.181,0,0,1,133.2,84.17l.447,1.787a4.837,4.837,0,0,1-3.351,5.809l-5.362,1.564a4.974,4.974,0,0,1-5.809-2.681L117.34,86.4,112.2,83.723a16.029,16.029,0,0,1-14.076-3.351c-5.809-4.915.67-6.256,1.341-6.479C99.69,73.445,107.956,69.2,107.956,69.2Z" transform="translate(10.014 3.638)" fill="#ffc1b2"/>
          </g>
          <g id="Group_90" data-name="Group 90">
            <path id="Path_131" data-name="Path 131" d="M79.778,34.5,105.7,79.186l-40.441,28.6L44.7,63.546Z" transform="translate(-44.7 -34.5)" fill="#ff9184"/>
            <path id="Path_132" data-name="Path 132" d="M48.9,57.4,61.189,78.849l7.15-5.139" transform="translate(-39.516 -6.235)" fill="none" stroke="#ff6c63" stroke-miterlimit="10" stroke-width="1.02"/>
            <line id="Line_14" data-name="Line 14" x1="16.534" y1="31.057" transform="translate(36.419 19.215)" fill="none" stroke="#ff6c63" stroke-miterlimit="10" stroke-width="1.02"/>
          </g>
        </g>
      </g>
      <g id="Group_101" data-name="Group 101" transform="translate(0 186.242)">
        <g id="Group_96" data-name="Group 96" transform="translate(39.324 2.234)">
          <g id="Group_94" data-name="Group 94" transform="translate(60.102 126.684)">
            <path id="Path_133" data-name="Path 133" d="M99.6,190.7l-2.458-49.6L74.8,144.9l6.256,51.389,19.215-3.8Z" transform="translate(-73.236 -141.1)" fill="#ffc1b2"/>
            <g id="Group_93" data-name="Group 93" transform="translate(0 41.334)">
              <path id="Path_134" data-name="Path 134" d="M79.015,163.622s15.863,6.7,23.46-4.022l38.877,20.332-67.252.223Z" transform="translate(-74.1 -159.6)"/>
              <path id="Path_135" data-name="Path 135" d="M141.352,174.409l-67.252.223v-5.809l67.252-.223Z" transform="translate(-74.1 -148.491)" fill="#fff"/>
              <path id="Path_136" data-name="Path 136" d="M87.575,167.808c.223,0,.223-.223.447-.447a23.023,23.023,0,0,1,5.139-5.139,1.042,1.042,0,0,0,.223-1.564,1.079,1.079,0,0,0-1.564-.223,22.218,22.218,0,0,0-5.586,5.586,1.1,1.1,0,0,0,.223,1.564A1.674,1.674,0,0,0,87.575,167.808Z" transform="translate(-59.423 -158.871)" fill="#fff"/>
              <path id="Path_137" data-name="Path 137" d="M89.875,169.008c.223,0,.223-.223.447-.447a23.022,23.022,0,0,1,5.139-5.139,1.042,1.042,0,0,0,.223-1.564,1.079,1.079,0,0,0-1.564-.223,22.218,22.218,0,0,0-5.586,5.586,1.1,1.1,0,0,0,.223,1.564A2.429,2.429,0,0,0,89.875,169.008Z" transform="translate(-56.584 -157.389)" fill="#fff"/>
              <path id="Path_138" data-name="Path 138" d="M92.275,170.208c.223,0,.223-.223.447-.447a23.022,23.022,0,0,1,5.139-5.139,1.042,1.042,0,0,0,.223-1.564,1.079,1.079,0,0,0-1.564-.223,22.219,22.219,0,0,0-5.586,5.586,1.1,1.1,0,0,0,.223,1.564A1.674,1.674,0,0,0,92.275,170.208Z" transform="translate(-53.622 -155.908)" fill="#fff"/>
            </g>
          </g>
          <g id="Group_95" data-name="Group 95">
            <path id="Path_139" data-name="Path 139" d="M90.1,88.2l41.781,62.113c4.469,7.6,4.022,10.278,4.692,19.215l4.245,75.072-36.866,2.458-9.161-74.4L49.434,99.146,47.2,84.4Z" transform="translate(-47.2 -84.4)" fill="#fff"/>
          </g>
        </g>
        <g id="Group_100" data-name="Group 100">
          <g id="Group_98" data-name="Group 98" transform="translate(0 130.483)">
            <path id="Path_140" data-name="Path 140" d="M51.415,193.189,64.6,141.8l-22.343,4.022L32.2,193.189l18.321,2.234Z" transform="translate(-26.391 -141.8)" fill="#ffc1b2"/>
            <g id="Group_97" data-name="Group 97" transform="translate(0 39.77)">
              <path id="Path_141" data-name="Path 141" d="M34.515,163.622s15.863,6.7,23.46-4.022l38.877,20.332-67.252.223Z" transform="translate(-29.6 -159.6)"/>
              <path id="Path_142" data-name="Path 142" d="M96.852,174.409l-67.252.223v-5.809l67.252-.223Z" transform="translate(-29.6 -148.491)" fill="#fff"/>
              <path id="Path_143" data-name="Path 143" d="M43.075,167.808c.223,0,.223-.223.447-.447a23.023,23.023,0,0,1,5.139-5.139,1.042,1.042,0,0,0,.223-1.564,1.079,1.079,0,0,0-1.564-.223,22.218,22.218,0,0,0-5.586,5.586,1.1,1.1,0,0,0,.223,1.564A1.674,1.674,0,0,0,43.075,167.808Z" transform="translate(-14.923 -158.871)" fill="#fff"/>
              <path id="Path_144" data-name="Path 144" d="M45.375,169.008c.223,0,.223-.223.447-.447a23.023,23.023,0,0,1,5.139-5.139,1.042,1.042,0,0,0,.223-1.564,1.079,1.079,0,0,0-1.564-.223,22.219,22.219,0,0,0-5.586,5.586,1.1,1.1,0,0,0,.223,1.564A2.429,2.429,0,0,0,45.375,169.008Z" transform="translate(-12.084 -157.389)" fill="#fff"/>
              <path id="Path_145" data-name="Path 145" d="M47.775,170.208c.223,0,.223-.223.447-.447a23.022,23.022,0,0,1,5.139-5.139,1.042,1.042,0,0,0,.223-1.564,1.079,1.079,0,0,0-1.564-.223,22.219,22.219,0,0,0-5.586,5.586,1.1,1.1,0,0,0,.223,1.564A2.014,2.014,0,0,0,47.775,170.208Z" transform="translate(-9.122 -155.908)" fill="#fff"/>
            </g>
          </g>
          <g id="Group_99" data-name="Group 99" transform="translate(1.341)">
            <path id="Path_146" data-name="Path 146" d="M57.7,117.99v-8.937L69.765,95.2" transform="translate(3.743 -68.835)" fill="none" stroke="#e2e2e2" stroke-miterlimit="10" stroke-width="0.76"/>
            <path id="Path_147" data-name="Path 147" d="M38.467,83.4s-9.831,21,2.681,49.6c.447,1.117.894,2.011,1.341,2.9l5.139,43.345L30.2,249.408l38.206.447,20.555-61.666a45.751,45.751,0,0,0,1.564-9.384l-.447-79.541,8.937-10.725Z" transform="translate(-30.2 -83.4)" fill="#fff"/>
          </g>
        </g>
      </g>
      <g id="Group_105" data-name="Group 105" transform="translate(77.023)">
        <path id="Path_148" data-name="Path 148" d="M93.256,11S101.523,28.2,87,27.757Z" transform="translate(-35.775 13.479)" fill="#0b181b"/>
        <path id="Path_149" data-name="Path 149" d="M82.83,23.108c-1.564,4.022,0,8.49,4.022,10.054a7.807,7.807,0,0,0,10.054-4.245c1.564-4.022,0-8.49-4.022-10.054C89.086,17.075,84.617,19.086,82.83,23.108Z" transform="translate(-41.659 22.374)" fill="#f1998a"/>
        <path id="Path_150" data-name="Path 150" d="M93.028,35.87,87,53.521c-2.011,6.256-6.926,8.267-12.735,6.033h0c-4.915-1.787-9.607-6.033-7.6-11.395L77.388,20.9Z" transform="translate(-61.465 25.699)" fill="#ffc1b2"/>
        <path id="Path_151" data-name="Path 151" d="M83.963,45.4S69.216,41.6,70.333,23.952c.447-5.586,18.321,7.82,18.321,7.82Z" transform="translate(-56.421 27.785)" fill="#0b181b"/>
        <path id="Path_152" data-name="Path 152" d="M83.1,59.893h0c10.054,3.351,21.226-1.787,24.354-10.278l6.479-17.651c4.022-10.5-.67-22.119-10.725-26.365h0C92.929,1.355,79.3,5.6,74.832,16.1L69.916,29.954A23.391,23.391,0,0,0,83.1,59.893Z" transform="translate(-58.685 4.804)" fill="#ffc1b2"/>
        <g id="Group_103" data-name="Group 103" transform="translate(16.37 26.825)">
          <path id="Path_153" data-name="Path 153" d="M83.951,20.4l-.894,3.8-2.458-.67" transform="translate(-60.045 -1.744)" fill="none" stroke="#0b181b" stroke-linecap="round" stroke-linejoin="round" stroke-miterlimit="10" stroke-width="0.527"/>
          <path id="Path_154" data-name="Path 154" d="M82.4,12.609s4.245,1.117,3.8,2.9c0,0-.447,1.117-4.022.223s-4.469-1.564-4.469-2.9C77.483,11.715,80.388,11.938,82.4,12.609Z" transform="translate(-63.631 -12.05)" fill="#0b181b"/>
          <path id="Path_155" data-name="Path 155" d="M89.435,15.684s-3.351-1.564-4.022,0c0,0-.447,1.117,2.458,2.234,2.9,1.341,4.022,1.117,4.469.447C93.01,17.471,91,16.131,89.435,15.684Z" transform="translate(-54.134 -8.423)" fill="#0b181b"/>
          <path id="Path_156" data-name="Path 156" d="M84.295,20.2a1.807,1.807,0,0,0,1.117,2.458,1.99,1.99,0,0,0,2.458-1.117A1.909,1.909,0,0,0,84.295,20.2Z" transform="translate(-55.696 -3.55)" fill="#0b181b"/>
          <path id="Path_157" data-name="Path 157" d="M77.595,17.549a1.807,1.807,0,0,0,1.117,2.458,1.99,1.99,0,0,0,2.458-1.117,1.807,1.807,0,0,0-1.117-2.458A2,2,0,0,0,77.595,17.549Z" transform="translate(-63.965 -6.712)" fill="#0b181b"/>
          <g id="Group_102" data-name="Group 102" transform="translate(0 3.002)">
            <path id="Path_158" data-name="Path 158" d="M83.341,21.992a8.63,8.63,0,1,0,11.171-4.915A8.961,8.961,0,0,0,83.341,21.992Z" transform="translate(-57.423 -9.465)" fill="none" stroke="#fff" stroke-miterlimit="10" stroke-width="0.49"/>
            <path id="Path_159" data-name="Path 159" d="M79.629,14.078a8.888,8.888,0,0,0-4.469,11.395,8.655,8.655,0,0,0,15.863-6.926A8.765,8.765,0,0,0,79.629,14.078Z" transform="translate(-67.564 -13.393)" fill="none" stroke="#fff" stroke-miterlimit="10" stroke-width="0.49"/>
            <line id="Line_15" data-name="Line 15" x1="7.373" y1="2.905" transform="translate(0 2.472)" fill="none" stroke="#fff" stroke-miterlimit="10" stroke-width="0.49"/>
            <line id="Line_16" data-name="Line 16" x2="2.458" y2="0.894" transform="translate(22.79 13.197)" fill="none" stroke="#fff" stroke-miterlimit="10" stroke-width="0.49"/>
          </g>
          <path id="Path_160" data-name="Path 160" d="M77.4,22.6s1.787,3.575,8.714,3.575" transform="translate(-63.994 0.972)" fill="none" stroke="#0b181b" stroke-linecap="round" stroke-linejoin="round" stroke-miterlimit="10" stroke-width="0.527"/>
        </g>
        <path id="Path_161" data-name="Path 161" d="M70.327,8.883C74.572,1.063,81.5,4.414,81.5,4.414h0C86.19.169,95.574-1.618,104.065,1.957c11.842,4.692,20.109,15.193,19.662,22.119s-9.607,3.351-9.607,3.351a235.527,235.527,0,0,1-23.907-8.714C89.1,23.629,86.19,30.779,77.7,28.1L71,41.5S64.965,18.937,70.327,8.883Z" transform="translate(-59.095 -0.044)" fill="#0b181b"/>
        <g id="Group_104" data-name="Group 104" transform="translate(1.47 26.598)">
          <path id="Path_162" data-name="Path 162" d="M65.332,16.756c-1.564,4.022,0,8.49,3.8,10.054a7.483,7.483,0,0,0,9.831-4.245c1.564-4.022,0-8.49-3.8-10.054A7.483,7.483,0,0,0,65.332,16.756Z" transform="translate(-64.731 -11.948)" fill="#ffc1b2"/>
          <path id="Path_163" data-name="Path 163" d="M70.4,20.056s2.234-5.139-2.9-6.256" transform="translate(-61.313 -9.663)" fill="none" stroke="#312220" stroke-linecap="round" stroke-linejoin="round" stroke-miterlimit="10" stroke-width="0.558"/>
        </g>
        <path id="Path_164" data-name="Path 164" d="M64.58,30.4l18.1,4.245L95.19,39.561S91.615,51.849,80.444,49.838C59.665,46.04,64.58,30.4,64.58,30.4Z" transform="translate(-64.073 37.425)" fill="#ffc1b2"/>
      </g>
    </g>
    <line id="Line_17" data-name="Line 17" x1="653.53" transform="translate(0 383.797)" fill="none" stroke="#55382e" stroke-miterlimit="10" stroke-width="1.147"/>
  </g>
</svg>
